<?xml version="1.0" encoding="iso-8859-1"?>
<!-- Generator: Adobe Illustrator 19.0.0, SVG Export Plug-In . SVG Version: 6.00 Build 0)  -->
<svg xmlns="http://www.w3.org/2000/svg" xmlns:xlink="http://www.w3.org/1999/xlink" version="1.1" id="Capa_1" x="0px" y="0px" viewBox="0 0 512.011 512.011" style="enable-background:new 0 0 512.011 512.011;" xml:space="preserve" width="512px" height="512px">
<g>
	<g>
		<g>
			<path d="M480,208.005h-2.624l-40.64-142.176c-5.376-15.445-24.64-28.491-42.069-28.491H117.333     c-17.429,0-36.693,13.045-42.261,29.067l-40.448,141.6H32c-15.851,0-32,16.149-32,32v187.04     c0,28.043,19.083,47.627,47.243,47.627h13.013c27.328,0,46.411-19.584,46.411-47.627v-27.04h298.667v27.04     c0,28.043,19.083,47.627,47.243,47.627H465.6c27.328,0,46.411-19.584,46.411-47.627v-187.04     C512,223.557,496.448,208.005,480,208.005z M95.403,72.848c2.4-6.891,13.675-14.176,21.931-14.176h277.333     c8.256,0,19.531,7.285,21.739,13.6l38.784,135.733H56.811L95.403,72.848z M85.333,427.045c0,12.704-6.581,26.293-25.909,26.293     H46.411c-18.496,0-25.077-13.579-25.077-26.293v-28.043c2.691,0.643,5.447,0.979,8.213,1.003h55.787V427.045z M341.333,378.672     H170.667v-42.667h170.667V378.672z M490.667,427.045c0,12.715-6.581,26.293-25.909,26.293h-13.013     c-18.485,0-25.077-13.579-25.077-26.293v-27.04h55.787c2.767-0.023,5.522-0.359,8.213-1.003V427.045z M490.667,374.277     c0,4.181-6.837,4.395-8.213,4.395H362.667v-53.333c0-5.891-4.776-10.667-10.667-10.667H160c-5.891,0-10.667,4.776-10.667,10.667     v53.333H29.547c-1.376,0-8.213-0.213-8.213-4.395V240.005c0-3.861,6.165-10.667,10.667-10.667h448     c4.683,0,10.667,5.984,10.667,10.667V374.277z" fill="#ff5f49"/>
			<path d="M90.667,250.672c-26.51,0-48,21.49-48,48c0,26.51,21.49,48,48,48c26.51,0,48-21.49,48-48     C138.667,272.162,117.176,250.672,90.667,250.672z M90.667,325.339C75.939,325.339,64,313.4,64,298.672     s11.939-26.667,26.667-26.667s26.667,11.939,26.667,26.667S105.394,325.339,90.667,325.339z" fill="#ff5f49"/>
			<path d="M421.333,250.672c-26.51,0-48,21.49-48,48c0,26.51,21.49,48,48,48c26.51,0,48-21.49,48-48     C469.333,272.162,447.843,250.672,421.333,250.672z M421.333,325.339c-14.728,0-26.667-11.939-26.667-26.667     s11.939-26.667,26.667-26.667S448,283.944,448,298.672S436.061,325.339,421.333,325.339z" fill="#ff5f49"/>
		</g>
	</g>
</g>
<g>
</g>
<g>
</g>
<g>
</g>
<g>
</g>
<g>
</g>
<g>
</g>
<g>
</g>
<g>
</g>
<g>
</g>
<g>
</g>
<g>
</g>
<g>
</g>
<g>
</g>
<g>
</g>
<g>
</g>
</svg>
