<?xml version="1.0" encoding="iso-8859-1"?>
<!-- Generator: Adobe Illustrator 19.0.0, SVG Export Plug-In . SVG Version: 6.00 Build 0)  -->
<svg xmlns="http://www.w3.org/2000/svg" xmlns:xlink="http://www.w3.org/1999/xlink" version="1.1" id="Capa_1" x="0px" y="0px" viewBox="0 0 512 512" style="enable-background:new 0 0 512 512;" xml:space="preserve" width="512px" height="512px">
<g>
	<g>
		<path d="M416,85.336c-60.309,0-129.557,31.637-132.48,32.96c-5.355,2.475-7.701,8.811-5.227,14.165    c2.475,5.333,8.811,7.68,14.165,5.227c0.683-0.32,67.968-31.019,123.541-31.019c54.4,0,74.667,13.077,74.667,21.333    c0,39.787-333.952,170.667-405.333,170.667c-11.989,0-44.117,0-59.179-2.731c6.997-5.504,19.541-13.333,32.064-19.797    c2.709-1.408,4.672-3.861,5.44-6.805c0.768-2.944,0.235-6.08-1.451-8.597l-37.803-56.725l9.707-9.707l78.443,39.232    c2.987,1.493,6.528,1.493,9.536,0l64-32c5.269-2.645,7.424-9.045,4.779-14.315c-2.645-5.248-9.045-7.403-14.315-4.757    l-59.221,29.611l-80.555-40.299c-4.117-2.048-9.067-1.259-12.309,2.005L3.136,195.117c-3.605,3.605-4.16,9.237-1.344,13.461    l36.16,54.229C0,283.992,0,294.509,0,298.669c0,19.221,27.328,21.333,85.333,21.333c56.789,0,426.667-124.907,426.667-192    C512,115.16,502.656,85.336,416,85.336z" fill="#FFFFFF"/>
	</g>
</g>
<g>
	<g>
		<path d="M319.915,137.346c-0.533-4.203-3.477-7.68-7.531-8.896l-213.333-64c-3.755-1.131-7.808-0.107-10.603,2.667l-42.667,42.667    c-2.347,2.347-3.477,5.653-3.029,8.96c0.448,3.307,2.411,6.208,5.291,7.851l149.333,85.333c1.643,0.939,3.477,1.408,5.291,1.408    c1.899,0,3.797-0.512,5.483-1.515l106.667-64C318.443,145.645,320.427,141.528,319.915,137.346z M202.517,190.317L70.741,115.01    l28.309-28.288l184.064,55.232L202.517,190.317z" fill="#FFFFFF"/>
	</g>
</g>
<g>
	<g>
		<path d="M480,96.002c-46.037,0-70.443,23.381-71.467,24.363c-4.181,4.117-4.245,10.795-0.171,15.019    c2.069,2.155,4.864,3.243,7.659,3.243c2.645,0,5.312-0.981,7.381-2.944c0.789-0.747,19.712-18.347,56.597-18.347    c5.888,0,10.667-4.779,10.667-10.667S485.888,96.002,480,96.002z" fill="#FFFFFF"/>
	</g>
</g>
<g>
	<g>
		<path d="M426.389,349.4l-32-128c-1.429-5.739-7.275-9.195-12.928-7.765c-5.717,1.429-9.195,7.211-7.765,12.928l29.909,119.701    l-27.392,13.696l-90.603-110.72c-3.755-4.587-10.475-5.248-15.019-1.515c-4.565,3.755-5.248,10.475-1.515,15.019l96,117.333    c2.069,2.56,5.141,3.925,8.256,3.925c1.621,0,3.243-0.363,4.821-1.152l42.667-21.333    C425.28,359.277,427.605,354.242,426.389,349.4z" fill="#FFFFFF"/>
	</g>
</g>
<g>
	<g>
		<path d="M245.333,426.669H10.667C4.779,426.669,0,431.448,0,437.336c0,5.888,4.779,10.667,10.667,10.667h234.667    c5.888,0,10.667-4.779,10.667-10.667C256,431.448,251.221,426.669,245.333,426.669z" fill="#FFFFFF"/>
	</g>
</g>
<g>
</g>
<g>
</g>
<g>
</g>
<g>
</g>
<g>
</g>
<g>
</g>
<g>
</g>
<g>
</g>
<g>
</g>
<g>
</g>
<g>
</g>
<g>
</g>
<g>
</g>
<g>
</g>
<g>
</g>
</svg>
